<?xml version="1.0" encoding="utf-8"?>
<svg version="1.0" xmlns="http://www.w3.org/2000/svg" viewBox="200 120 170 260">
<style type="text/css">
	.st0{fill:#3EC0BE;}
	.st1{fill:#FFFFFF;}
</style>
<g>
	<g>
		<path class="st0" d="M208.86,124.95h88.77c48.83,0,88.77,39.95,88.77,88.77l0,0c0,48.83-39.95,88.77-88.77,88.77h-88.77V124.95
			L208.86,124.95z"/>
	</g>
	<path class="st1" d="M340.66,170.7c-11-11-26.21-17.8-43.02-17.8h-60.83l-0.01,15.14v45.69c0,16.81,6.81,32.02,17.81,43.03
		c11,11,26.21,17.8,43.02,17.8c16.81,0,32.02-6.8,43.03-17.8c11.01-11.01,17.81-26.21,17.81-43.03
		C358.47,196.91,351.67,181.71,340.66,170.7z M320.98,237.07c-6.23,6.23-14.53,9.65-23.34,9.65c-8.81,0-17.1-3.43-23.34-9.66
		c-6.23-6.23-9.65-14.52-9.65-23.34v-33h33c8.81,0,17.11,3.43,23.34,9.66c6.23,6.23,9.65,14.53,9.65,23.34
		C330.63,222.53,327.21,230.84,320.98,237.07z"/>
	<g>
		<path d="M217.02,338.35v-0.11h-0.13c-0.43,2-1.18,2.68-2.9,2.68c-2.04,0-3.09-1.16-3.09-3.15c0-2.36,1.42-3.69,3.6-4.78l2.4-1.2
			v-1.18h2.57v6.89c0,0.86,0.34,1.16,1.29,1.16h0.64v2.57l-0.64,0.64C218.2,341.85,217.02,340.52,217.02,338.35z M216.91,336.61
			v-2.57l-1.59,0.75c-1.52,0.73-2.27,1.12-2.27,1.93c0,0.71,0.41,0.99,1.65,0.99C216.35,337.71,216.91,337.43,216.91,336.61z"/>
		<path d="M220.77,339.3l0.64-0.64h0.94c1.07,0,1.35-0.41,1.35-1.29v-11.37h2.57v11.37c0,3.07-1.05,4.48-3.93,4.51h-1.59V339.3z"/>
		<path d="M228.86,325.99h2.57v15.88h-2.57V325.99z"/>
		<path d="M233.36,338.72v-1.44h2.47v1.37h2.94c0.94,0,1.37-0.26,1.37-0.92c0-0.3-0.15-0.77-0.3-1.2l-1.89-5.43l2.75-0.97l2.17,6.2
			c0.64,1.87,1.18,2.32,2.3,2.32h0.64v2.57l-0.64,0.64c-2.38,0-3.48-0.62-4.51-2.94l-0.09,0.04c-0.36,2.08-1.09,2.9-2.94,2.9h-1.18
			C234.46,341.87,233.36,340.9,233.36,338.72z"/>
	</g>
</g>
</svg>
