<?xml version="1.0" encoding="utf-8"?>
<!-- Generator: Adobe Illustrator 30.0.0, SVG Export Plug-In . SVG Version: 9.03 Build 0)  -->
<svg version="1.0" id="Layer_1" xmlns="http://www.w3.org/2000/svg" xmlns:xlink="http://www.w3.org/1999/xlink" x="0px" y="0px"
	 viewBox="0 0 595.28 841.89" style="enable-background:new 0 0 595.28 841.89;" xml:space="preserve">
<style type="text/css">
	.st0{fill-rule:evenodd;clip-rule:evenodd;fill:#3EC0BE;}
	.st1{fill-rule:evenodd;clip-rule:evenodd;fill:#FFFFFF;}
</style>
<g>
	<g>
		<path d="M1377.28,239.37c-5.76-0.81-11.97-1.44-18.52-1.92l-14.71-32.99l-6.79-15.22l-6.61,14.83l-14.26,31.96
			c-11.38-0.07-23.02,0-34.53,0.07h-0.7l14.37-32.22l41.73-93.58l43.29,97.07l16.12,36.14
			C1391.9,241.99,1385.57,240.55,1377.28,239.37z"/>
		<path d="M1418.54,292.58c-7.17,6.21-16.05,12.55-26.69,19.1c-13.59,8.33-30.04,16.98-49.56,26.1
			c-46.2,21.57-91.84,37.09-93.77,37.74l-34.79,11.77l45.03-100.97l16.96-38.02c1.64-0.01,3.29-0.01,4.93-0.03h1.27
			c8.12-0.06,16.3-0.1,24.41-0.1c1.55,0,3.09,0,4.64,0.01l-22.84,51.22l-14.55,32.63c16.05-6.25,35.79-14.36,55.33-23.49
			c21.99-10.27,38.02-19.14,49.7-26.59c13.94-8.89,21.68-15.78,25.97-20.7c5.35-6.12,5.37-9.18,5.37-9.25
			c-0.1-1.87-3.31-5.33-13.28-8.49c-4.77-1.52-11.1-2.96-19.39-4.14c-5.76-0.81-11.97-1.44-18.52-1.92l-14.71-32.99
			c13.03,0.5,25.37,1.38,36.5,2.91c0.42,0.06,0.84,0.11,1.24,0.17c14.51,2.06,58.66,8.32,60.27,42.96
			C1442.7,264.41,1435.19,278.15,1418.54,292.58z"/>
		<path d="M1345.18,236.69c-9.23-0.39-18.9-0.59-28.8-0.66c-11.38-0.07-23.02,0-34.53,0.07h-0.7c-7.62,0.04-15.18,0.08-22.63,0.08
			h-38.23v-0.01l14.33-32.14h23.9c7.6,0,15.35-0.04,23.14-0.08c4.61-0.03,9.24-0.06,13.87-0.07c11.83-0.04,23.65-0.03,35.12,0.2
			L1345.18,236.69z"/>
	</g>
	<path d="M1458.48,382.12l-34.78-77.96c-7.13,5.87-15.5,11.74-25.47,17.88c-0.46,0.28-0.92,0.56-1.38,0.84l26.42,59.24H1458.48z"/>
</g>
<g>
	<g>
		<path class="st0" d="M208.86,124.95h88.77c48.83,0,88.77,39.95,88.77,88.77l0,0c0,48.83-39.95,88.77-88.77,88.77h-88.77V124.95
			L208.86,124.95z"/>
	</g>
	<path class="st1" d="M340.66,170.7c-11-11-26.21-17.8-43.02-17.8h-60.83l-0.01,15.14v45.69c0,16.81,6.81,32.02,17.81,43.03
		c11,11,26.21,17.8,43.02,17.8c16.81,0,32.02-6.8,43.03-17.8c11.01-11.01,17.81-26.21,17.81-43.03
		C358.47,196.91,351.67,181.71,340.66,170.7z M320.98,237.07c-6.23,6.23-14.53,9.65-23.34,9.65c-8.81,0-17.1-3.43-23.34-9.66
		c-6.23-6.23-9.65-14.52-9.65-23.34v-33h33c8.81,0,17.11,3.43,23.34,9.66c6.23,6.23,9.65,14.53,9.65,23.34
		C330.63,222.53,327.21,230.84,320.98,237.07z"/>
	<g>
		<path d="M217.02,338.35v-0.11h-0.13c-0.43,2-1.18,2.68-2.9,2.68c-2.04,0-3.09-1.16-3.09-3.15c0-2.36,1.42-3.69,3.6-4.78l2.4-1.2
			v-1.18h2.57v6.89c0,0.86,0.34,1.16,1.29,1.16h0.64v2.57l-0.64,0.64C218.2,341.85,217.02,340.52,217.02,338.35z M216.91,336.61
			v-2.57l-1.59,0.75c-1.52,0.73-2.27,1.12-2.27,1.93c0,0.71,0.41,0.99,1.65,0.99C216.35,337.71,216.91,337.43,216.91,336.61z
			 M213.35,327.45c0-1.01,0.54-1.44,1.27-1.44h0.43c0.73,0,1.27,0.43,1.27,1.44s-0.54,1.44-1.27,1.44h-0.43
			C213.88,328.89,213.35,328.46,213.35,327.45z M216.74,327.45c0-1.01,0.54-1.44,1.27-1.44h0.43c0.73,0,1.27,0.43,1.27,1.44
			s-0.54,1.44-1.27,1.44H218C217.27,328.89,216.74,328.46,216.74,327.45z"/>
		<path d="M220.77,339.3l0.64-0.64h0.94c1.07,0,1.35-0.41,1.35-1.29v-11.37h2.57v11.37c0,3.07-1.05,4.48-3.93,4.51h-1.59V339.3z"/>
		<path d="M228.86,325.99h2.57v15.88h-2.57V325.99z"/>
		<path d="M233.36,338.72v-1.44h2.47v1.37h2.94c0.94,0,1.37-0.26,1.37-0.92c0-0.3-0.15-0.77-0.3-1.2l-1.89-5.43l2.75-0.97l2.17,6.2
			c0.64,1.87,1.18,2.32,2.3,2.32h0.64v2.57l-0.64,0.64c-2.38,0-3.48-0.62-4.51-2.94l-0.09,0.04c-0.36,2.08-1.09,2.9-2.94,2.9h-1.18
			C234.46,341.87,233.36,340.9,233.36,338.72z"/>
		<path d="M245.16,339.3l0.64-0.64h2.3v2.57l-0.64,0.64h-2.3V339.3z"/>
		<path d="M247.46,339.3l0.64-0.64h2.3v2.57l-0.64,0.64h-2.3V339.3z"/>
		<path d="M249.76,339.3l0.64-0.64h2.3v2.57l-0.64,0.64h-2.3V339.3z"/>
		<path d="M252.05,339.3l0.64-0.64h2.3v2.57l-0.64,0.64h-2.3V339.3z"/>
		<path d="M254.35,339.3l0.64-0.64h2.3v2.57l-0.64,0.64h-2.3V339.3z"/>
		<path d="M256.64,339.3l0.64-0.64h2.3v2.57l-0.64,0.64h-2.3V339.3z"/>
		<path d="M258.94,339.3l0.64-0.64h2.3v2.57l-0.64,0.64h-2.3V339.3z"/>
		<path d="M261.23,339.3l0.64-0.64h2.3v2.57l-0.64,0.64h-2.3V339.3z"/>
		<path d="M263.53,339.3l0.64-0.64h2.3v2.57l-0.64,0.64h-2.3V339.3z"/>
		<path d="M265.82,339.3l0.64-0.64h2.3v2.57l-0.64,0.64h-2.3V339.3z"/>
		<path d="M268.12,339.3l0.64-0.64h2.3v2.57l-0.64,0.64h-2.3V339.3z"/>
		<path d="M270.42,339.3l0.64-0.64h2.3v2.57l-0.64,0.64h-2.3V339.3z"/>
		<path d="M272.71,339.3l0.64-0.64h2.3v2.57l-0.64,0.64h-2.3V339.3z"/>
		<path d="M275.01,339.3l0.64-0.64h2.3v2.57l-0.64,0.64h-2.3V339.3z"/>
		<path d="M277.3,339.3l0.64-0.64h2.3v2.57l-0.64,0.64h-2.3V339.3z"/>
		<path d="M279.6,339.3l0.64-0.64h2.3v2.57l-0.64,0.64h-2.3V339.3z"/>
		<path d="M281.89,339.3l0.64-0.64h2.3v2.57l-0.64,0.64h-2.3V339.3z"/>
		<path d="M284.19,339.3l0.64-0.64h2.3v2.57l-0.64,0.64h-2.3V339.3z"/>
		<path d="M286.48,339.3l0.64-0.64h2.3v2.57l-0.64,0.64h-2.3V339.3z"/>
		<path d="M288.78,339.3l0.64-0.64h2.3v2.57l-0.64,0.64h-2.3V339.3z"/>
		<path d="M291.08,339.3l0.64-0.64h2.3v2.57l-0.64,0.64h-2.3V339.3z"/>
		<path d="M293.37,339.3l0.64-0.64h2.3v2.57l-0.64,0.64h-2.3V339.3z"/>
		<path d="M295.67,339.3l0.64-0.64h2.3v2.57l-0.64,0.64h-2.3V339.3z"/>
		<path d="M297.96,339.3l0.64-0.64h2.3v2.57l-0.64,0.64h-2.3V339.3z"/>
		<path d="M300.26,339.3l0.64-0.64h2.3v2.57l-0.64,0.64h-2.3V339.3z"/>
		<path d="M302.55,339.3l0.64-0.64h2.3v2.57l-0.64,0.64h-2.3V339.3z"/>
		<path d="M304.85,339.3l0.64-0.64h2.3v2.57l-0.64,0.64h-2.3V339.3z"/>
		<path d="M307.14,339.3l0.64-0.64h2.3v2.57l-0.64,0.64h-2.3V339.3z"/>
		<path d="M309.44,339.3l0.64-0.64h2.3v2.57l-0.64,0.64h-2.3V339.3z"/>
		<path d="M311.74,339.3l0.64-0.64h0.94c1.07,0,1.35-0.41,1.35-1.29v-11.37h2.57v11.37c0,3.07-1.05,4.48-3.93,4.51h-1.59V339.3z"/>
		<path d="M319.82,325.99h2.57v15.88h-2.57V325.99z"/>
		<path d="M335.72,338.35v-0.11h-0.13c-0.43,2-1.18,2.68-2.9,2.68c-2.04,0-3.09-1.16-3.09-3.15c0-2.36,1.42-3.69,3.6-4.78l2.4-1.2
			v-1.18h2.57v6.89c0,0.86,0.34,1.16,1.29,1.16h0.64v2.57l-0.64,0.64C336.9,341.85,335.72,340.52,335.72,338.35z M335.61,336.61
			v-2.57l-1.59,0.75c-1.52,0.73-2.27,1.12-2.27,1.93c0,0.71,0.41,0.99,1.65,0.99C335.06,337.71,335.61,337.43,335.61,336.61z
			 M332.05,327.45c0-1.01,0.54-1.44,1.27-1.44h0.43c0.73,0,1.27,0.43,1.27,1.44s-0.54,1.44-1.27,1.44h-0.43
			C332.59,328.89,332.05,328.46,332.05,327.45z M335.44,327.45c0-1.01,0.54-1.44,1.27-1.44h0.43c0.73,0,1.27,0.43,1.27,1.44
			s-0.54,1.44-1.27,1.44h-0.43C335.98,328.89,335.44,328.46,335.44,327.45z"/>
		<path d="M339.48,339.3l0.64-0.64h3.69c0.96,0,1.29-0.19,1.29-0.75c0-0.52-0.26-0.79-1.31-1.37l-3.45-1.87V329l10.3-3.26v2.83
			l-9.23,2.9v0.13l2.38,1.33c2.57,1.44,3.45,2.6,3.45,4.53c0,3.02-1.22,4.42-4.29,4.42h-3.48V339.3z"/>
		<path d="M346.98,343.8h0.86c2.57,0,3.75-0.99,3.75-3.43c0-0.64-0.11-1.37-0.24-2.21l-0.45-2.85l2.34-0.36l0.32,2
			c0.11,0.62,0.17,1.2,0.24,1.72h1.97v2.57l-0.64,0.64h-1.33c-0.49,3.18-2.53,5.15-5.94,5.15h-0.88V343.8z"/>
		<path d="M355.14,339.3l0.64-0.64h2.3v2.57l-0.64,0.64h-2.3V339.3z"/>
		<path d="M357.43,339.3l0.64-0.64h2.3v2.57l-0.64,0.64h-2.3V339.3z"/>
		<path d="M359.73,339.3l0.64-0.64h2.3v2.57l-0.64,0.64h-2.3V339.3z"/>
		<path d="M362.02,339.3l0.64-0.64h2.3v2.57l-0.64,0.64h-2.3V339.3z"/>
		<path d="M364.32,339.3l0.64-0.64h2.3v2.57l-0.64,0.64h-2.3V339.3z"/>
		<path d="M366.61,339.3l0.64-0.64h2.3v2.57l-0.64,0.64h-2.3V339.3z"/>
		<path d="M368.91,339.3l0.64-0.64h0.02c1.35,0,1.95-0.28,2.34-1.12l0.84-1.74l2.12,1.03l-0.75,1.57c0.69,0.32,1.42,0.56,2.15,0.56
			c1.22,0,1.74-0.47,1.74-1.8v-1.35h2.36v1.35c0,1.18,0.45,1.72,1.16,1.72h0.21c0.6,0,1.01-0.43,1.01-1.39
			c0-0.41-0.09-1.01-0.24-1.89l-0.19-1.09l2.34-0.39l0.17,1.09c0.13,0.84,0.19,1.54,0.19,2.27c0,3.2-1.07,4.66-3.39,4.66
			c-2.02,0-2.98-0.97-3.35-2.98h-0.13c-0.21,2.04-1.05,2.98-2.32,2.98c-0.82,0-1.52-0.26-2.83-1.03l-0.45-0.26
			c-0.88,0.86-1.93,1.03-3.65,1.03V339.3z M376.01,332.64c0-1.01,0.54-1.44,1.27-1.44h0.43c0.73,0,1.27,0.43,1.27,1.44
			s-0.54,1.44-1.27,1.44h-0.43C376.55,334.08,376.01,333.65,376.01,332.64z M377.71,329.51c0-1.01,0.54-1.44,1.27-1.44h0.43
			c0.73,0,1.27,0.43,1.27,1.44s-0.54,1.44-1.27,1.44h-0.43C378.24,330.95,377.71,330.52,377.71,329.51z M379.4,332.64
			c0-1.01,0.54-1.44,1.27-1.44h0.43c0.73,0,1.27,0.43,1.27,1.44s-0.54,1.44-1.27,1.44h-0.43
			C379.94,334.08,379.4,333.65,379.4,332.64z"/>
		<path d="M210.32,364.2c0-1.5,0.75-2.92,2.25-4.57l0.73-0.84h1.93l0.58,0.62c1.61,1.74,2.19,3.15,2.19,4.57
			c0,2.19-1.42,3.82-3.84,3.82S210.32,366.24,210.32,364.2z M211.76,355.17c0-0.73,0.36-1.05,0.94-1.05h0.24
			c0.56,0,0.94,0.32,0.94,1.05s-0.39,1.05-0.94,1.05h-0.24C212.12,356.22,211.76,355.9,211.76,355.17z M214.38,365.96
			c1.22,0,2.12-0.84,2.12-1.97c0-0.84-0.45-1.65-1.39-2.64l-0.97-1.03h-0.13l-0.88,1.03c-0.86,1.01-1.31,1.69-1.31,2.53
			c0,1.12,0.9,2.08,2.12,2.08H214.38z M214.53,355.17c0-0.73,0.36-1.05,0.94-1.05h0.24c0.56,0,0.94,0.32,0.94,1.05
			s-0.39,1.05-0.94,1.05h-0.24C214.89,356.22,214.53,355.9,214.53,355.17z"/>
		<path d="M219.61,365.79v-1.65h1.5v1.63h3.54c1.59,0,2-0.81,2-1.67c0-0.99-0.54-1.87-2.06-3.39l-2.25-2.47l1.39-1.33l2.15,2.47
			c1.69,1.97,2.3,3.22,2.3,4.87c0,2.08-1.35,3.37-3.73,3.37h-3.05C220.36,367.61,219.61,366.97,219.61,365.79z"/>
		<path d="M229.74,370.92h1.48c3.45,0,5.08-1.61,5.08-4.31v-0.47h-0.11c-0.41,0.94-1.39,1.52-2.64,1.52c-2.27,0-3.6-1.29-3.6-3.48
			c0-2.57,1.63-4.7,3.9-4.7c2.45,0,3.95,2.25,3.95,6.05c0,4.55-2.19,7.23-6.59,7.23h-1.48V370.92z M236.3,365.1
			c0-2.3-0.99-3.78-2.57-3.78c-1.46,0-2.27,1.07-2.27,2.64c0,1.24,0.67,1.8,2.1,1.8h0.43C235.21,365.77,235.9,365.55,236.3,365.1z"
			/>
		<path d="M239.41,365.79v-1.65h1.5v1.63h2.9c1.95,0,2.45-0.17,2.45-0.9c0-0.34-0.13-0.75-0.49-1.74l-2.06-5.66l1.52-0.56l2.19,6.01
			c0.84,2.27,1.29,2.85,2.21,2.85h0.54v1.42l-0.43,0.43c-1.54,0-2.27-0.52-2.96-1.93h-0.11c-0.17,1.39-1.05,1.93-2.85,1.93h-2.62
			C240.17,367.61,239.41,366.97,239.41,365.79z"/>
		<path d="M249.73,366.2l0.43-0.43h0.73c2.51,0,4.12-0.24,7.27-1.74l1.97-0.94V363l-3.18-0.71l-4.44-1.09v1.84h-1.5v-1.65
			c0-1.18,0.75-1.82,1.78-1.82c0.32,0,0.67,0.04,1.61,0.28l5.23,1.35c1.57,0.41,2.57,0.54,3.35,0.54h0.34v1.85h-1.63v0.26
			c0,1.42,0.62,1.93,1.93,1.93h0.75v1.42l-0.43,0.43c-2.53,0-3.48-0.88-3.54-3.28l-1.67,1.01c-3.54,2.12-5.3,2.27-7.85,2.27h-1.16
			V366.2z"/>
		<path d="M268.55,368.34c-0.9-0.52-1.59-0.71-2.66-0.73h-1.93v-1.42l0.43-0.43H266v-14.03h1.59v14.22c0.62,0.15,1.2,0.41,1.89,0.77
			l1.09,0.62l-0.92,1.61L268.55,368.34z"/>
		<path d="M271.36,351.74h1.59v15.88h-1.59V351.74z"/>
		<path d="M285.84,364.48v-0.36h-0.11c-0.41,1.27-1.42,1.93-2.75,1.93c-1.91,0-3.05-1.09-3.05-2.96c0-1.63,0.99-2.72,3.62-4.23
			l2.17-1.24v-1.07h1.5v7.72c0,1.16,0.6,1.5,1.84,1.5h0.75v1.42l-0.43,0.43C286.79,367.61,285.84,366.8,285.84,364.48z
			 M285.73,362.49v-3.13l-2.17,1.16c-1.52,0.81-2.12,1.44-2.12,2.36s0.52,1.33,1.87,1.33C285.05,364.2,285.73,363.77,285.73,362.49z
			 M282.71,353.71c0-0.73,0.36-1.05,0.94-1.05h0.24c0.56,0,0.94,0.32,0.94,1.05c0,0.73-0.39,1.05-0.94,1.05h-0.24
			C283.07,354.76,282.71,354.44,282.71,353.71z M285.48,353.71c0-0.73,0.37-1.05,0.94-1.05h0.24c0.56,0,0.94,0.32,0.94,1.05
			c0,0.73-0.39,1.05-0.94,1.05h-0.24C285.84,354.76,285.48,354.44,285.48,353.71z"/>
		<path d="M292.21,366.37c-0.64,0.88-1.48,1.24-2.81,1.24v-1.42l0.43-0.43c1.09,0,1.48-0.54,2-1.93l0.6-1.59
			c0.64-1.69,1.67-2.68,3.48-2.68c2.1,0,3.33,2.04,3.33,5.43v1.01l-1.27,1.87L292.21,366.37z M293.07,364.68l4.66,1.24V365
			c0-2.23-0.77-3.58-2.08-3.58c-1.09,0-1.61,0.73-2,1.74L293.07,364.68z"/>
		<path d="M301.8,364.27v-12.53h1.59v12.53c0,1.09,0.6,1.5,1.85,1.5h0.75v1.42l-0.43,0.43h-0.02
			C302.77,367.61,301.8,366.74,301.8,364.27z"/>
		<path d="M305.56,366.2l0.43-0.43h3.97l0.02-0.09l-3.02-3.73v-1.85c1.24-0.64,2.81-1.03,4.2-1.03c2.6,0,4.12,1.12,4.12,3
			c0,1.48-0.73,2.12-2.68,3.63l0.02,0.06h3.63v1.42l-0.43,0.43h-1.39c-1.14,0-2.23-0.32-3.15-0.99c-0.92,0.67-2.02,0.99-3.15,0.99
			h-2.55V366.2z M308.39,361.44l3.03,3.6l0.24-0.19c1.35-1.14,2.17-1.65,2.17-2.51c0-0.9-1.01-1.42-2.7-1.42
			c-0.84,0-1.74,0.13-2.73,0.43V361.44z"/>
		<path d="M315.81,366.2l0.43-0.43h0.62c1.35,0,1.95-0.62,1.95-1.97v-12.06h1.59v12.06c0,2.62-1.09,3.82-3.54,3.82h-1.05V366.2z"/>
		<path d="M323.62,351.74h1.59v15.88h-1.59V351.74z"/>
		<path d="M332.85,364.2c0-1.5,0.75-2.92,2.25-4.57l0.73-0.84h1.93l0.58,0.62c1.61,1.74,2.19,3.15,2.19,4.57
			c0,2.19-1.42,3.82-3.84,3.82S332.85,366.24,332.85,364.2z M334.28,355.17c0-0.73,0.37-1.05,0.94-1.05h0.24
			c0.56,0,0.94,0.32,0.94,1.05s-0.39,1.05-0.94,1.05h-0.24C334.65,356.22,334.28,355.9,334.28,355.17z M336.9,365.96
			c1.22,0,2.12-0.84,2.12-1.97c0-0.84-0.45-1.65-1.39-2.64l-0.97-1.03h-0.13l-0.88,1.03c-0.86,1.01-1.31,1.69-1.31,2.53
			c0,1.12,0.9,2.08,2.12,2.08H336.9z M337.05,355.17c0-0.73,0.37-1.05,0.94-1.05h0.24c0.56,0,0.94,0.32,0.94,1.05
			s-0.39,1.05-0.94,1.05H338C337.42,356.22,337.05,355.9,337.05,355.17z"/>
		<path d="M340.21,370.92H341c3.13,0,3.88-1.95,3.88-4.18c0-0.84-0.09-1.78-0.24-2.6l-0.45-2.42l1.5-0.3l0.28,1.63
			c0.24,1.35,0.34,2.53,0.34,3.73c0,3.13-1.22,5.99-5.32,5.99h-0.79V370.92z"/>
		<path d="M348.79,364.27v-12.53h1.59v12.53c0,1.09,0.6,1.5,1.85,1.5h0.75v1.42l-0.43,0.43h-0.02
			C349.75,367.61,348.79,366.74,348.79,364.27z"/>
		<path d="M352.54,366.2l0.43-0.43h0.73c2.51,0,4.12-0.24,7.27-1.74l1.97-0.94V363l-3.17-0.71l-4.44-1.09v1.84h-1.5v-1.65
			c0-1.18,0.75-1.82,1.78-1.82c0.32,0,0.67,0.04,1.61,0.28l5.23,1.35c1.57,0.41,2.57,0.54,3.35,0.54h0.34v1.85h-1.63v0.26
			c0,1.42,0.62,1.93,1.93,1.93h0.75v1.42l-0.43,0.43c-2.53,0-3.48-0.88-3.54-3.28l-1.67,1.01c-3.54,2.12-5.3,2.27-7.85,2.27h-1.16
			V366.2z M358.44,370.88c0-0.73,0.36-1.05,0.94-1.05h0.24c0.56,0,0.94,0.32,0.94,1.05c0,0.73-0.39,1.05-0.94,1.05h-0.24
			C358.8,371.93,358.44,371.6,358.44,370.88z"/>
		<path d="M366.77,366.2l0.43-0.43h0.75c1.22,0,1.82-0.6,1.82-1.82v-3.39h1.5v3.39c0,1.24,0.58,1.82,1.82,1.82h0.75v1.42l-0.43,0.43
			c-2,0-3.13-0.69-3.48-2.1h-0.11c-0.32,1.57-1.12,2.1-3.07,2.1V366.2z M368.01,356.93c0-0.73,0.36-1.05,0.94-1.05h0.24
			c0.56,0,0.94,0.32,0.94,1.05s-0.39,1.05-0.94,1.05h-0.24C368.37,357.98,368.01,357.66,368.01,356.93z M370.78,356.93
			c0-0.73,0.36-1.05,0.94-1.05h0.24c0.56,0,0.94,0.32,0.94,1.05s-0.39,1.05-0.94,1.05h-0.24
			C371.14,357.98,370.78,357.66,370.78,356.93z"/>
		<path d="M373.42,366.2l0.43-0.43h0.75c1.22,0,1.82-0.6,1.82-1.82v-12.21h1.59v12.21c0,1.24,0.58,1.82,1.82,1.82h0.75v1.42
			l-0.43,0.43c-2,0-3.22-0.69-3.56-2.1h-0.11c-0.32,1.57-1.12,2.1-3.07,2.1V366.2z"/>
		<path d="M380.15,366.2l0.43-0.43h0.62c1.35,0,1.95-0.62,1.95-1.97v-12.06h1.59v12.06c0,2.62-1.09,3.82-3.54,3.82h-1.05V366.2z"/>
	</g>
</g>
<g>
	<g>
		<path class="st0" d="M412.42,543.17h53.84c29.61,0,53.84,24.23,53.84,53.84l0,0c0,29.61-24.23,53.84-53.84,53.84h-53.84V543.17
			L412.42,543.17z"/>
	</g>
	<path class="st1" d="M492.35,570.92c-6.67-6.67-15.9-10.8-26.09-10.8h-36.89l0,9.18v27.71c0,10.2,4.13,19.42,10.8,26.09
		c6.67,6.67,15.9,10.8,26.09,10.8c10.2,0,19.42-4.12,26.09-10.8c6.68-6.68,10.8-15.9,10.8-26.09S499.03,577.59,492.35,570.92z
		 M480.41,611.17c-3.78,3.78-8.81,5.85-14.16,5.85c-5.34,0-10.37-2.08-14.15-5.86c-3.78-3.78-5.85-8.81-5.85-14.15V577h20.01
		c5.34,0,10.38,2.08,14.15,5.86c3.78,3.78,5.85,8.81,5.85,14.15S484.19,607.39,480.41,611.17z"/>
	<g>
		<path d="M113.46,579.76v-0.17h-0.2c-0.68,3.16-1.87,4.25-4.59,4.25c-3.23,0-4.89-1.83-4.89-4.99c0-3.74,2.24-5.84,5.71-7.57
			l3.8-1.9v-1.87h4.08v10.9c0,1.36,0.54,1.83,2.04,1.83h1.02v4.08l-1.02,1.02C115.33,585.29,113.46,583.19,113.46,579.76z
			 M113.29,577.01v-4.08l-2.51,1.19c-2.41,1.15-3.6,1.77-3.6,3.06c0,1.12,0.65,1.56,2.62,1.56
			C112.41,578.74,113.29,578.3,113.29,577.01z M107.65,562.5c0-1.6,0.85-2.28,2-2.28h0.68c1.15,0,2,0.68,2,2.28
			c0,1.6-0.85,2.28-2,2.28h-0.68C108.5,564.78,107.65,564.1,107.65,562.5z M113.02,562.5c0-1.6,0.85-2.28,2-2.28h0.68
			c1.15,0,2,0.68,2,2.28c0,1.6-0.85,2.28-2,2.28h-0.68C113.87,564.78,113.02,564.1,113.02,562.5z"/>
		<path d="M119.41,581.25l1.02-1.02h1.49c1.7,0,2.14-0.65,2.14-2.04v-18h4.08v18c0,4.86-1.66,7.1-6.22,7.13h-2.51V581.25z"/>
		<path d="M132.21,560.19h4.08v25.13h-4.08V560.19z"/>
		<path d="M139.34,580.34v-2.28h3.91v2.17h4.65c1.49,0,2.17-0.41,2.17-1.46c0-0.48-0.24-1.22-0.48-1.9l-2.99-8.59l4.35-1.53
			l3.43,9.82c1.02,2.96,1.87,3.67,3.63,3.67h1.02v4.08l-1.02,1.02c-3.77,0-5.5-0.98-7.13-4.65l-0.14,0.07
			c-0.58,3.29-1.73,4.59-4.65,4.59h-1.87C141.08,585.33,139.34,583.8,139.34,580.34z"/>
		<path d="M158.02,581.25l1.02-1.02h3.63v4.08l-1.02,1.02h-3.63V581.25z"/>
		<path d="M161.66,581.25l1.02-1.02h3.63v4.08l-1.02,1.02h-3.63V581.25z"/>
		<path d="M165.29,581.25l1.02-1.02h3.63v4.08l-1.02,1.02h-3.63V581.25z"/>
		<path d="M168.93,581.25l1.02-1.02h3.63v4.08l-1.02,1.02h-3.63V581.25z"/>
		<path d="M172.56,581.25l1.02-1.02h3.63v4.08l-1.02,1.02h-3.63V581.25z"/>
		<path d="M176.2,581.25l1.02-1.02h3.63v4.08l-1.02,1.02h-3.63V581.25z"/>
		<path d="M179.83,581.25l1.02-1.02h3.63v4.08l-1.02,1.02h-3.63V581.25z"/>
		<path d="M183.46,581.25l1.02-1.02h3.63v4.08l-1.02,1.02h-3.63V581.25z"/>
		<path d="M187.1,581.25l1.02-1.02h3.63v4.08l-1.02,1.02h-3.63V581.25z"/>
		<path d="M190.73,581.25l1.02-1.02h3.63v4.08l-1.02,1.02h-3.63V581.25z"/>
		<path d="M194.37,581.25l1.02-1.02h3.63v4.08l-1.02,1.02h-3.63V581.25z"/>
		<path d="M198,581.25l1.02-1.02h3.63v4.08l-1.02,1.02H198V581.25z"/>
		<path d="M201.63,581.25l1.02-1.02h3.63v4.08l-1.02,1.02h-3.63V581.25z"/>
		<path d="M205.27,581.25l1.02-1.02h3.63v4.08l-1.02,1.02h-3.63V581.25z"/>
		<path d="M208.9,581.25l1.02-1.02h3.63v4.08l-1.02,1.02h-3.63V581.25z"/>
		<path d="M212.54,581.25l1.02-1.02h3.63v4.08l-1.02,1.02h-3.63V581.25z"/>
		<path d="M216.17,581.25l1.02-1.02h3.63v4.08l-1.02,1.02h-3.63V581.25z"/>
		<path d="M219.81,581.25l1.02-1.02h3.63v4.08l-1.02,1.02h-3.63V581.25z"/>
		<path d="M223.44,581.25l1.02-1.02h3.63v4.08l-1.02,1.02h-3.63V581.25z"/>
		<path d="M227.07,581.25l1.02-1.02h3.63v4.08l-1.02,1.02h-3.63V581.25z"/>
		<path d="M230.71,581.25l1.02-1.02h3.63v4.08l-1.02,1.02h-3.63V581.25z"/>
		<path d="M234.34,581.25l1.02-1.02H239v4.08l-1.02,1.02h-3.63V581.25z"/>
		<path d="M237.98,581.25l1.02-1.02h3.63v4.08l-1.02,1.02h-3.63V581.25z"/>
		<path d="M241.61,581.25l1.02-1.02h3.63v4.08l-1.02,1.02h-3.63V581.25z"/>
		<path d="M245.25,581.25l1.02-1.02h3.63v4.08l-1.02,1.02h-3.63V581.25z"/>
		<path d="M248.88,581.25l1.02-1.02h3.63v4.08l-1.02,1.02h-3.63V581.25z"/>
		<path d="M252.51,581.25l1.02-1.02h3.63v4.08l-1.02,1.02h-3.63V581.25z"/>
		<path d="M256.15,581.25l1.02-1.02h3.63v4.08l-1.02,1.02h-3.63V581.25z"/>
		<path d="M259.78,581.25l1.02-1.02h3.63v4.08l-1.02,1.02h-3.63V581.25z"/>
		<path d="M263.42,581.25l1.02-1.02h1.49c1.7,0,2.14-0.65,2.14-2.04v-18h4.08v18c0,4.86-1.66,7.1-6.22,7.13h-2.51V581.25z"/>
		<path d="M276.22,560.19h4.08v25.13h-4.08V560.19z"/>
		<path d="M301.39,579.76v-0.17h-0.2c-0.68,3.16-1.87,4.25-4.59,4.25c-3.23,0-4.89-1.83-4.89-4.99c0-3.74,2.24-5.84,5.71-7.57
			l3.8-1.9v-1.87h4.08v10.9c0,1.36,0.54,1.83,2.04,1.83h1.02v4.08l-1.02,1.02C303.26,585.29,301.39,583.19,301.39,579.76z
			 M301.22,577.01v-4.08l-2.51,1.19c-2.41,1.15-3.6,1.77-3.6,3.06c0,1.12,0.64,1.56,2.62,1.56
			C300.34,578.74,301.22,578.3,301.22,577.01z M295.58,562.5c0-1.6,0.85-2.28,2-2.28h0.68c1.15,0,2,0.68,2,2.28
			c0,1.6-0.85,2.28-2,2.28h-0.68C296.43,564.78,295.58,564.1,295.58,562.5z M300.95,562.5c0-1.6,0.85-2.28,2-2.28h0.68
			c1.15,0,2,0.68,2,2.28c0,1.6-0.85,2.28-2,2.28h-0.68C301.8,564.78,300.95,564.1,300.95,562.5z"/>
		<path d="M307.33,581.25l1.02-1.02h5.84c1.53,0,2.04-0.31,2.04-1.19c0-0.82-0.41-1.26-2.07-2.17l-5.47-2.95v-8.97l16.3-5.16v4.48
			l-14.6,4.59v0.2l3.77,2.11c4.08,2.28,5.47,4.11,5.47,7.17c0,4.79-1.94,7-6.79,7h-5.5V581.25z"/>
		<path d="M319.22,588.38h1.36c4.08,0,5.94-1.56,5.94-5.43c0-1.02-0.17-2.17-0.37-3.5l-0.71-4.52l3.7-0.58l0.51,3.16
			c0.17,0.98,0.27,1.9,0.37,2.72h3.12v4.08l-1.02,1.02h-2.11c-0.78,5.03-4.01,8.15-9.41,8.15h-1.39V588.38z"/>
		<path d="M332.13,581.25l1.02-1.02h3.63v4.08l-1.02,1.02h-3.63V581.25z"/>
		<path d="M335.76,581.25l1.02-1.02h3.63v4.08l-1.02,1.02h-3.63V581.25z"/>
		<path d="M339.4,581.25l1.02-1.02h3.63v4.08l-1.02,1.02h-3.63V581.25z"/>
		<path d="M343.03,581.25l1.02-1.02h3.63v4.08l-1.02,1.02h-3.63V581.25z"/>
		<path d="M346.66,581.25l1.02-1.02h3.63v4.08l-1.02,1.02h-3.63V581.25z"/>
		<path d="M350.3,581.25l1.02-1.02h3.63v4.08l-1.02,1.02h-3.63V581.25z"/>
		<path d="M353.93,581.25l1.02-1.02h0.03c2.14,0,3.09-0.44,3.7-1.77l1.32-2.75l3.36,1.63l-1.19,2.48c1.09,0.51,2.24,0.88,3.4,0.88
			c1.94,0,2.75-0.75,2.75-2.85v-2.14h3.74v2.14c0,1.87,0.71,2.72,1.83,2.72h0.34c0.95,0,1.6-0.68,1.6-2.21
			c0-0.65-0.14-1.6-0.37-2.99l-0.31-1.73l3.7-0.61l0.27,1.73c0.2,1.32,0.31,2.45,0.31,3.6c0,5.06-1.7,7.37-5.37,7.37
			c-3.19,0-4.72-1.53-5.3-4.72h-0.2c-0.34,3.23-1.66,4.72-3.67,4.72c-1.29,0-2.41-0.41-4.48-1.63l-0.71-0.41
			c-1.39,1.36-3.06,1.63-5.77,1.63V581.25z M365.17,570.72c0-1.6,0.85-2.28,2-2.28h0.68c1.15,0,2,0.68,2,2.28
			c0,1.6-0.85,2.28-2,2.28h-0.68C366.02,573,365.17,572.32,365.17,570.72z M367.86,565.76c0-1.6,0.85-2.28,2-2.28h0.68
			c1.15,0,2,0.68,2,2.28c0,1.6-0.85,2.28-2,2.28h-0.68C368.71,568.04,367.86,567.36,367.86,565.76z M370.54,570.72
			c0-1.6,0.85-2.28,2-2.28h0.68c1.15,0,2,0.68,2,2.28c0,1.6-0.85,2.28-2,2.28h-0.68C371.39,573,370.54,572.32,370.54,570.72z"/>
		<path d="M102.87,620.69c0-2.38,1.19-4.62,3.57-7.23l1.15-1.32h3.06l0.92,0.99c2.55,2.75,3.46,4.99,3.46,7.23
			c0,3.46-2.24,6.05-6.08,6.05C105.11,626.39,102.87,623.91,102.87,620.69z M105.14,606.39c0-1.15,0.58-1.66,1.49-1.66h0.37
			c0.88,0,1.49,0.51,1.49,1.66c0,1.15-0.61,1.66-1.49,1.66h-0.37C105.72,608.05,105.14,607.54,105.14,606.39z M109.29,623.47
			c1.94,0,3.36-1.32,3.36-3.12c0-1.32-0.71-2.61-2.21-4.18l-1.53-1.63h-0.2l-1.39,1.63c-1.36,1.6-2.07,2.68-2.07,4.01
			c0,1.77,1.43,3.29,3.36,3.29H109.29z M109.52,606.39c0-1.15,0.58-1.66,1.49-1.66h0.37c0.88,0,1.49,0.51,1.49,1.66
			c0,1.15-0.61,1.66-1.49,1.66h-0.37C110.1,608.05,109.52,607.54,109.52,606.39z"/>
		<path d="M117.57,623.2v-2.62h2.38v2.58h5.6c2.51,0,3.16-1.29,3.16-2.65c0-1.56-0.85-2.96-3.26-5.37l-3.57-3.91l2.21-2.11l3.4,3.91
			c2.68,3.12,3.63,5.09,3.63,7.71c0,3.29-2.14,5.33-5.91,5.33h-4.82C118.76,626.09,117.57,625.07,117.57,623.2z"/>
		<path d="M133.6,631.32h2.34c5.47,0,8.05-2.55,8.05-6.83v-0.75h-0.17c-0.65,1.49-2.21,2.41-4.18,2.41c-3.6,0-5.71-2.04-5.71-5.5
			c0-4.08,2.58-7.44,6.18-7.44c3.87,0,6.25,3.57,6.25,9.58c0,7.2-3.46,11.45-10.43,11.45h-2.34V631.32z M144,622.11
			c0-3.63-1.56-5.98-4.08-5.98c-2.31,0-3.6,1.7-3.6,4.18c0,1.97,1.05,2.85,3.33,2.85h0.68C142.26,623.16,143.35,622.83,144,622.11z"
			/>
		<path d="M148.92,623.2v-2.62h2.38v2.58h4.59c3.09,0,3.87-0.27,3.87-1.43c0-0.54-0.2-1.19-0.78-2.75l-3.26-8.97l2.41-0.88
			l3.46,9.51c1.32,3.6,2.04,4.52,3.5,4.52h0.85v2.24l-0.68,0.68c-2.45,0-3.6-0.82-4.69-3.06h-0.17c-0.27,2.21-1.66,3.06-4.52,3.06
			h-4.14C150.11,626.09,148.92,625.07,148.92,623.2z"/>
		<path d="M165.26,623.84l0.68-0.68h1.15c3.97,0,6.52-0.37,11.51-2.75l3.12-1.49v-0.14l-5.03-1.12l-7.03-1.73v2.92h-2.38v-2.62
			c0-1.87,1.19-2.89,2.82-2.89c0.51,0,1.05,0.07,2.55,0.44l8.29,2.14c2.48,0.65,4.08,0.85,5.3,0.85h0.54v2.92h-2.58v0.41
			c0,2.24,0.98,3.06,3.06,3.06h1.19v2.24l-0.68,0.68c-4.01,0-5.5-1.39-5.6-5.2l-2.65,1.6c-5.6,3.36-8.39,3.6-12.43,3.6h-1.83V623.84
			z"/>
		<path d="M195.05,627.24c-1.43-0.82-2.51-1.12-4.21-1.15h-3.06v-2.24l0.68-0.68H191v-22.21h2.51v22.52
			c0.98,0.24,1.9,0.65,2.99,1.22l1.73,0.99l-1.46,2.55L195.05,627.24z"/>
		<path d="M199.5,600.95h2.51v25.13h-2.51V600.95z"/>
		<path d="M222.42,621.13v-0.58h-0.17c-0.65,2-2.24,3.06-4.35,3.06c-3.02,0-4.82-1.73-4.82-4.69c0-2.58,1.56-4.31,5.74-6.69
			l3.43-1.97v-1.7h2.38v12.23c0,1.83,0.95,2.38,2.92,2.38h1.19v2.24l-0.68,0.68C223.92,626.09,222.42,624.79,222.42,621.13z
			 M222.25,617.97v-4.96l-3.43,1.83c-2.41,1.29-3.36,2.28-3.36,3.74c0,1.46,0.82,2.11,2.95,2.11
			C221.16,620.69,222.25,620.01,222.25,617.97z M217.46,604.08c0-1.15,0.58-1.66,1.49-1.66h0.37c0.88,0,1.49,0.51,1.49,1.66
			c0,1.15-0.61,1.66-1.49,1.66h-0.37C218.04,605.74,217.46,605.23,217.46,604.08z M221.84,604.08c0-1.15,0.58-1.66,1.49-1.66h0.37
			c0.88,0,1.49,0.51,1.49,1.66c0,1.15-0.61,1.66-1.49,1.66h-0.37C222.42,605.74,221.84,605.23,221.84,604.08z"/>
		<path d="M232.51,624.12c-1.02,1.39-2.34,1.97-4.45,1.97v-2.24l0.68-0.68c1.73,0,2.34-0.85,3.16-3.06l0.95-2.51
			c1.02-2.68,2.65-4.25,5.5-4.25c3.33,0,5.26,3.23,5.26,8.59v1.6l-2,2.95L232.51,624.12z M233.87,621.43l7.37,1.97v-1.46
			c0-3.53-1.22-5.67-3.29-5.67c-1.73,0-2.55,1.15-3.16,2.75L233.87,621.43z"/>
		<path d="M247.69,620.79v-19.83h2.51v19.83c0,1.73,0.95,2.38,2.92,2.38h1.19v2.24l-0.68,0.68h-0.03
			C249.22,626.09,247.69,624.69,247.69,620.79z"/>
		<path d="M253.63,623.84l0.68-0.68h6.28l0.03-0.14l-4.79-5.91v-2.92c1.97-1.02,4.45-1.63,6.66-1.63c4.11,0,6.52,1.77,6.52,4.75
			c0,2.34-1.15,3.36-4.25,5.74l0.03,0.1h5.74v2.24l-0.68,0.68h-2.21c-1.8,0-3.53-0.51-4.99-1.56c-1.46,1.05-3.19,1.56-4.99,1.56
			h-4.04V623.84z M258.12,616.3l4.79,5.71l0.37-0.31c2.14-1.8,3.43-2.62,3.43-3.97c0-1.43-1.6-2.24-4.28-2.24
			c-1.32,0-2.75,0.2-4.31,0.68V616.3z"/>
		<path d="M269.87,623.84l0.68-0.68h0.98c2.14,0,3.09-0.98,3.09-3.12v-19.09h2.51v19.09c0,4.14-1.73,6.05-5.6,6.05h-1.66V623.84z"/>
		<path d="M282.23,600.95h2.51v25.13h-2.51V600.95z"/>
		<path d="M296.84,620.69c0-2.38,1.19-4.62,3.57-7.23l1.15-1.32h3.06l0.92,0.99c2.55,2.75,3.46,4.99,3.46,7.23
			c0,3.46-2.24,6.05-6.08,6.05C299.08,626.39,296.84,623.91,296.84,620.69z M299.11,606.39c0-1.15,0.58-1.66,1.49-1.66h0.37
			c0.88,0,1.5,0.51,1.5,1.66c0,1.15-0.61,1.66-1.5,1.66h-0.37C299.69,608.05,299.11,607.54,299.11,606.39z M303.26,623.47
			c1.94,0,3.36-1.32,3.36-3.12c0-1.32-0.71-2.61-2.21-4.18l-1.53-1.63h-0.2l-1.39,1.63c-1.36,1.6-2.07,2.68-2.07,4.01
			c0,1.77,1.43,3.29,3.36,3.29H303.26z M303.49,606.39c0-1.15,0.58-1.66,1.49-1.66h0.37c0.88,0,1.49,0.51,1.49,1.66
			c0,1.15-0.61,1.66-1.49,1.66h-0.37C304.07,608.05,303.49,607.54,303.49,606.39z"/>
		<path d="M308.49,631.32h1.26c4.96,0,6.15-3.09,6.15-6.62c0-1.32-0.14-2.82-0.37-4.11l-0.71-3.84l2.38-0.48l0.44,2.58
			c0.37,2.14,0.54,4.01,0.54,5.91c0,4.96-1.94,9.48-8.42,9.48h-1.26V631.32z"/>
		<path d="M322.07,620.79v-19.83h2.51v19.83c0,1.73,0.95,2.38,2.92,2.38h1.19v2.24l-0.68,0.68h-0.03
			C323.6,626.09,322.07,624.69,322.07,620.79z"/>
		<path d="M328.02,623.84l0.68-0.68h1.15c3.97,0,6.52-0.37,11.51-2.75l3.12-1.49v-0.14l-5.03-1.12l-7.03-1.73v2.92h-2.38v-2.62
			c0-1.87,1.19-2.89,2.82-2.89c0.51,0,1.05,0.07,2.55,0.44l8.29,2.14c2.48,0.65,4.08,0.85,5.3,0.85h0.54v2.92h-2.58v0.41
			c0,2.24,0.98,3.06,3.06,3.06h1.19v2.24l-0.68,0.68c-4.01,0-5.5-1.39-5.6-5.2l-2.65,1.6c-5.6,3.36-8.39,3.6-12.43,3.6h-1.83V623.84
			z M337.36,631.25c0-1.15,0.58-1.66,1.49-1.66h0.37c0.88,0,1.49,0.51,1.49,1.66c0,1.15-0.61,1.66-1.49,1.66h-0.37
			C337.93,632.91,337.36,632.4,337.36,631.25z"/>
		<path d="M350.54,623.84l0.68-0.68h1.19c1.94,0,2.89-0.95,2.89-2.89v-5.37h2.38v5.37c0,1.97,0.92,2.89,2.89,2.89h1.19v2.24
			l-0.68,0.68c-3.16,0-4.96-1.09-5.5-3.33h-0.17c-0.51,2.48-1.77,3.33-4.86,3.33V623.84z M352.51,609.17c0-1.15,0.58-1.66,1.5-1.66
			h0.37c0.88,0,1.49,0.51,1.49,1.66c0,1.15-0.61,1.66-1.49,1.66H354C353.08,610.84,352.51,610.33,352.51,609.17z M356.89,609.17
			c0-1.15,0.58-1.66,1.49-1.66h0.37c0.88,0,1.49,0.51,1.49,1.66c0,1.15-0.61,1.66-1.49,1.66h-0.37
			C357.46,610.84,356.89,610.33,356.89,609.17z"/>
		<path d="M361.07,623.84l0.68-0.68h1.19c1.94,0,2.89-0.95,2.89-2.89v-19.33h2.51v19.33c0,1.97,0.92,2.89,2.89,2.89h1.19v2.24
			l-0.68,0.68c-3.16,0-5.09-1.09-5.64-3.33h-0.17c-0.51,2.48-1.77,3.33-4.86,3.33V623.84z"/>
		<path d="M371.73,623.84l0.68-0.68h0.98c2.14,0,3.09-0.98,3.09-3.12v-19.09H379v19.09c0,4.14-1.73,6.05-5.6,6.05h-1.66V623.84z"/>
	</g>
</g>
</svg>
